<?xml version="1.0" encoding="UTF-8" standalone="no"?>
<svg
   xmlns:dc="http://purl.org/dc/elements/1.1/"
   xmlns:cc="http://creativecommons.org/ns#"
   xmlns:rdf="http://www.w3.org/1999/02/22-rdf-syntax-ns#"
   xmlns:svg="http://www.w3.org/2000/svg"
   xmlns="http://www.w3.org/2000/svg"
   viewBox="0 0 1333.3333 1333.3333"
   height="1333.3333"
   width="1333.3333"
   xml:space="preserve"
   id="svg2"
   version="1.1"><metadata
     id="metadata8"><rdf:RDF><cc:Work
         rdf:about=""><dc:format>image/svg+xml</dc:format><dc:type
           rdf:resource="http://purl.org/dc/dcmitype/StillImage" /></cc:Work></rdf:RDF></metadata><defs
     id="defs6"><clipPath
       id="clipPath46"
       clipPathUnits="userSpaceOnUse"><path
         id="path44"
         d="M 0,1000 H 1000 V 0 H 0 Z" /></clipPath><clipPath
       id="clipPath92"
       clipPathUnits="userSpaceOnUse"><path
         id="path90"
         d="M 0,1000 H 1000 V 0 H 0 Z" /></clipPath><clipPath
       id="clipPath112"
       clipPathUnits="userSpaceOnUse"><path
         id="path110"
         d="M 0,1000 H 1000 V 0 H 0 Z" /></clipPath><clipPath
       id="clipPath136"
       clipPathUnits="userSpaceOnUse"><path
         id="path134"
         d="M 0,1000 H 1000 V 0 H 0 Z" /></clipPath><clipPath
       id="clipPath268"
       clipPathUnits="userSpaceOnUse"><path
         id="path266"
         d="M 0,1000 H 1000 V 0 H 0 Z" /></clipPath><clipPath
       id="clipPath340"
       clipPathUnits="userSpaceOnUse"><path
         id="path338"
         d="M 0,1000 H 1000 V 0 H 0 Z" /></clipPath></defs><g
     transform="matrix(1.3333333,0,0,-1.3333333,0,1333.3333)"
     id="g10"><g
       transform="translate(500.4855,0.1899)"
       id="g12"><path
         id="path14"
         style="fill:#414042;fill-opacity:1;fill-rule:nonzero;stroke:none"
         d="M 0,0 499.514,-0.1 V 166.749 500.446 L 0,500.545 Z" /></g><g
       transform="translate(500.4855,999.9999)"
       id="g16"><path
         id="path18"
         style="fill:#a7a9ac;fill-opacity:1;fill-rule:nonzero;stroke:none"
         d="m 0,0 v -499.265 l 499.514,-0.099 V -0.033 L 331.497,0 Z" /></g><g
       transform="translate(0.9693,0.3267)"
       id="g20"><path
         id="path22"
         style="fill:#f1fbfd;fill-opacity:1;fill-rule:nonzero;stroke:none"
         d="M 0,0 499.517,-0.098 499.52,499.653 0,499.75 Z" /></g><g
       transform="translate(0.9693,999.891)"
       id="g24"><path
         id="path26"
         style="fill:#414042;fill-opacity:1;fill-rule:nonzero;stroke:none"
         d="M 0,0 V -499.814 L 499.52,-499.911 499.522,0 Z" /></g><g
       transform="translate(86.5703,759.623)"
       id="g28"><path
         id="path30"
         style="fill:none;stroke:#ffffff;stroke-width:1.33299994;stroke-linecap:butt;stroke-linejoin:miter;stroke-miterlimit:10;stroke-dasharray:none;stroke-opacity:1"
         d="M 0,0 H 102.504" /></g><g
       transform="translate(42.293,746.2798)"
       id="g32"><path
         id="path34"
         style="fill:none;stroke:#ffffff;stroke-width:1.33299994;stroke-linecap:butt;stroke-linejoin:miter;stroke-miterlimit:10;stroke-dasharray:none;stroke-opacity:1"
         d="M 0,0 H 135.864" /></g><g
       transform="translate(65.9478,732.3291)"
       id="g36"><path
         id="path38"
         style="fill:none;stroke:#ffffff;stroke-width:1.33299994;stroke-linecap:butt;stroke-linejoin:miter;stroke-miterlimit:10;stroke-dasharray:none;stroke-opacity:1"
         d="M 0,0 H 116.455" /></g><g
       id="g40"><g
         clip-path="url(#clipPath46)"
         id="g42"><g
           transform="translate(329.1826,726.6235)"
           id="g48"><path
             id="path50"
             style="fill:none;stroke:#000000;stroke-width:1.33299994;stroke-linecap:butt;stroke-linejoin:miter;stroke-miterlimit:10;stroke-dasharray:none;stroke-opacity:1"
             d="m 0,0 c 5.63,0 5.63,-7.997 11.257,-7.997 5.637,0 5.637,7.997 11.269,7.997 5.631,0 5.631,-7.997 11.261,-7.997 5.633,0 5.633,7.997 11.266,7.997 5.635,0 5.635,-7.997 11.27,-7.997 5.636,0 5.636,7.997 11.271,7.997 5.636,0 5.636,-7.997 11.271,-7.997 5.636,0 5.636,7.997 11.269,7.997 5.636,0 5.636,-7.997 11.268,-7.997 5.641,0 5.641,7.997 11.282,7.997 5.643,0 5.643,-7.997 11.287,-7.997 5.643,0 5.643,7.997 11.286,7.997" /></g><g
           transform="translate(344.8159,784.8516)"
           id="g52"><path
             id="path54"
             style="fill:#ffffff;fill-opacity:1;fill-rule:nonzero;stroke:none"
             d="M 0,0 H -175.921 L -87.96,-51.961 Z" /></g><g
           transform="translate(168.8945,784.8516)"
           id="g56"><path
             id="path58"
             style="fill:#f5ede3;fill-opacity:1;fill-rule:nonzero;stroke:none"
             d="m 0,0 v -103.929 l 87.961,51.968 z" /></g><g
           transform="translate(168.8945,680.9224)"
           id="g60"><path
             id="path62"
             style="fill:#ebddce;fill-opacity:1;fill-rule:nonzero;stroke:none"
             d="M 0,0 H 175.921 L 87.961,51.968 Z" /></g><g
           transform="translate(256.8555,732.8906)"
           id="g64"><path
             id="path66"
             style="fill:#f5ede3;fill-opacity:1;fill-rule:nonzero;stroke:none"
             d="M 0,0 87.96,-51.968 V 51.961 Z" /></g><g
           transform="translate(329.1826,893.147)"
           id="g68"><path
             id="path70"
             style="fill:#e6eaee;fill-opacity:1;fill-rule:nonzero;stroke:none"
             d="m 0,0 h -108.612 v -64.596 h 12.891 l -3.761,-15.928 33.855,15.928 H 0 Z" /></g><path
           id="path72"
           style="fill:#cccccc;fill-opacity:1;fill-rule:nonzero;stroke:none"
           d="m 314.402,875.392 h -79.61 v 3.434 h 79.61 z" /><path
           id="path74"
           style="fill:#cccccc;fill-opacity:1;fill-rule:nonzero;stroke:none"
           d="m 314.402,861.65 h -79.61 v 3.438 h 79.61 z" /><path
           id="path76"
           style="fill:#cccccc;fill-opacity:1;fill-rule:nonzero;stroke:none"
           d="m 277.015,848.344 h -42.223 v 3.434 h 42.223 z" /><g
           transform="translate(217.5122,712.1011)"
           id="g78"><path
             id="path80"
             style="fill:#01c6d9;fill-opacity:1;fill-rule:nonzero;stroke:none"
             d="m 0,0 -26.924,-10.954 c -8.746,9.388 -21.18,15.294 -35.021,15.294 -26.454,0 -47.905,-21.448 -47.905,-47.904 0,-26.456 21.451,-47.904 47.905,-47.904 26.455,0 47.904,21.448 47.904,47.904 0,4.615 -0.688,9.063 -1.907,13.286 z" /></g></g></g><text
       id="text84"
       style="font-variant:normal;font-weight:600;font-stretch:normal;font-size:76.86569977px;font-family:'Myriad Pro Light';-inkscape-font-specification:MyriadPro-Semibold;writing-mode:lr-tb;fill:#ffffff;fill-opacity:1;fill-rule:nonzero;stroke:none"
       transform="matrix(1,0,0,-1,126.6265,649.2832)"><tspan
         id="tspan82"
         y="0"
         x="0">@</tspan></text>
<g
       id="g86"><g
         clip-path="url(#clipPath92)"
         id="g88"><g
           transform="translate(292.9902,821.041)"
           id="g94"><path
             id="path96"
             style="fill:#f4db81;fill-opacity:1;fill-rule:nonzero;stroke:none"
             d="M 0,0 C 0,-14.441 5.097,-27.692 13.582,-38.06 L 0,-63.995 25.97,-49.478 c 9.704,-6.713 21.47,-10.655 34.162,-10.655 V 60.132 C 26.925,60.132 0,33.208 0,0" /></g><g
           transform="translate(353.1221,881.1733)"
           id="g98"><path
             id="path100"
             style="fill:#f0ca67;fill-opacity:1;fill-rule:nonzero;stroke:none"
             d="m 0,0 v -120.266 c 33.207,0 60.132,26.925 60.132,60.134 C 60.132,-26.924 33.207,0 0,0" /></g></g></g><text
       id="text104"
       style="font-variant:normal;font-weight:600;font-stretch:normal;font-size:101.24330139px;font-family:'Myriad Pro Light';-inkscape-font-specification:MyriadPro-Semibold;writing-mode:lr-tb;fill:#ffffff;fill-opacity:1;fill-rule:nonzero;stroke:none"
       transform="matrix(1,0,0,-1,326.3999,788.6416)"><tspan
         id="tspan102"
         y="0"
         x="0">$</tspan></text>
<g
       id="g106"><g
         clip-path="url(#clipPath112)"
         id="g108"><g
           transform="translate(109.8145,795.8101)"
           id="g114"><path
             id="path116"
             style="fill:#303841;fill-opacity:1;fill-rule:nonzero;stroke:none"
             d="m 0,0 c 0,-3.186 -2.583,-5.768 -5.769,-5.768 -3.186,0 -5.768,2.582 -5.768,5.768 0,3.186 2.582,5.769 5.768,5.769 C -2.583,5.769 0,3.186 0,0" /></g><g
           transform="translate(167.5332,828.1914)"
           id="g118"><path
             id="path120"
             style="fill:#303841;fill-opacity:1;fill-rule:nonzero;stroke:none"
             d="m 0,0 c 0,-12.175 -9.872,-22.047 -22.048,-22.047 -12.175,0 -22.047,9.872 -22.047,22.047 0,12.175 9.872,22.047 22.047,22.047 C -9.872,22.047 0,12.175 0,0" /></g><g
           transform="translate(153.0732,827.5771)"
           id="g122"><path
             id="path124"
             style="fill:#ffffff;fill-opacity:1;fill-rule:evenodd;stroke:none"
             d="m 0,0 -11.641,-7.4 c -0.246,-0.157 -0.564,-0.232 -0.884,-0.246 -0.03,0 -0.054,-0.014 -0.081,-0.014 -0.655,0 -1.185,0.464 -1.185,1.035 V 7.854 c 0,0.57 0.528,1.031 1.179,1.034 h -0.005 0.011 c 0.006,0 0.013,-0.004 0.021,-0.004 0.342,-0.004 0.683,-0.085 0.944,-0.251 L 0,1.234 C 0.536,0.893 0.536,0.341 0,0" /></g></g></g><text
       id="text128"
       style="font-variant:normal;font-weight:normal;font-stretch:normal;font-size:33.14590073px;font-family:'Myriad Pro';-inkscape-font-specification:MyriadPro-Regular;writing-mode:lr-tb;fill:#ffffff;fill-opacity:1;fill-rule:nonzero;stroke:none"
       transform="matrix(1,0,0,-1,123.1885,542.2256)"><tspan
         id="tspan126"
         y="0"
         x="0 16.307783 42.625626 62.910919 70.832787 86.477654 93.504585 119.82574 140.11104 157.94353 175.9086 192.74672 209.22023 217.14211 238.9521">EMAIL MARKETING</tspan></text>
<g
       id="g130"><g
         clip-path="url(#clipPath136)"
         id="g132"><g
           transform="translate(37.9707,330.6562)"
           id="g138"><path
             id="path140"
             style="fill:none;stroke:#808080;stroke-width:0.66600001;stroke-linecap:butt;stroke-linejoin:miter;stroke-miterlimit:10;stroke-dasharray:none;stroke-opacity:1"
             d="M 0,0 H 11.026" /></g><g
           transform="translate(59.123,330.6562)"
           id="g142"><path
             id="path144"
             style="fill:none;stroke:#808080;stroke-width:0.66600001;stroke-linecap:butt;stroke-linejoin:miter;stroke-miterlimit:10;stroke-dasharray:none;stroke-opacity:1"
             d="M 0,0 H 261.178" /></g><g
           transform="translate(37.9707,291.3711)"
           id="g146"><path
             id="path148"
             style="fill:none;stroke:#808080;stroke-width:0.66600001;stroke-linecap:butt;stroke-linejoin:miter;stroke-miterlimit:10;stroke-dasharray:none;stroke-opacity:1"
             d="M 0,0 H 11.026" /></g><g
           transform="translate(59.123,291.3711)"
           id="g150"><path
             id="path152"
             style="fill:none;stroke:#808080;stroke-width:0.66600001;stroke-linecap:butt;stroke-linejoin:miter;stroke-miterlimit:10;stroke-dasharray:none;stroke-opacity:1"
             d="M 0,0 H 261.178" /></g><g
           transform="translate(37.9707,250.3604)"
           id="g154"><path
             id="path156"
             style="fill:none;stroke:#808080;stroke-width:0.66600001;stroke-linecap:butt;stroke-linejoin:miter;stroke-miterlimit:10;stroke-dasharray:none;stroke-opacity:1"
             d="M 0,0 H 11.026" /></g><g
           transform="translate(59.123,250.3604)"
           id="g158"><path
             id="path160"
             style="fill:none;stroke:#808080;stroke-width:0.66600001;stroke-linecap:butt;stroke-linejoin:miter;stroke-miterlimit:10;stroke-dasharray:none;stroke-opacity:1"
             d="M 0,0 H 261.178" /></g><g
           transform="translate(55.5864,323.75)"
           id="g162"><path
             id="path164"
             style="fill:none;stroke:#333333;stroke-width:1.33299994;stroke-linecap:butt;stroke-linejoin:miter;stroke-miterlimit:10;stroke-dasharray:none;stroke-opacity:1"
             d="M 0,0 24.689,22.016 H 49.846 L 73.041,43.169 96.353,33.24 117.073,0 146.861,3.452 171.9,25.47 207.729,0 l 47.49,22.879" /></g><g
           transform="translate(55.5864,287.1699)"
           id="g166"><path
             id="path168"
             style="fill:none;stroke:#2e58a6;stroke-width:1.33299994;stroke-linecap:butt;stroke-linejoin:miter;stroke-miterlimit:10;stroke-dasharray:none;stroke-opacity:1"
             d="m 0,0 29.007,12.835 23.743,-19.858 41.579,37.99 31.379,-12.521 30.219,-22.015 12.951,25.039 14.247,12.951 18.131,28.491 56.553,-29.354" /></g><g
           transform="translate(55.5864,269.624)"
           id="g170"><path
             id="path172"
             style="fill:none;stroke:#93014a;stroke-width:1.33299994;stroke-linecap:butt;stroke-linejoin:miter;stroke-miterlimit:10;stroke-dasharray:none;stroke-opacity:1"
             d="m 0,0 27.712,3.616 14.246,30.219 31.33,-4.546 18.315,-18.767 h 34.105 L 152.042,0 l 27.628,-1.997 15.542,7.771 20.722,25.471 42.307,-25.04" /></g><path
           id="path174"
           style="fill:#905371;fill-opacity:1;fill-rule:nonzero;stroke:none"
           d="m 74.254,225.757 h -8.748 v 6.414 h 8.748 z" /><path
           id="path176"
           style="fill:#b6bfc0;fill-opacity:1;fill-rule:nonzero;stroke:none"
           d="M 134.759,227.796 H 76.295 v 2.479 h 58.464 z" /><path
           id="path178"
           style="fill:#b6bfc0;fill-opacity:1;fill-rule:nonzero;stroke:none"
           d="M 134.759,219.193 H 76.295 v 2.479 h 58.464 z" /><path
           id="path180"
           style="fill:#b6bfc0;fill-opacity:1;fill-rule:nonzero;stroke:none"
           d="M 117.554,210.298 H 76.295 v 2.48 h 41.259 z" /><path
           id="path182"
           style="fill:#99d2ec;fill-opacity:1;fill-rule:nonzero;stroke:none"
           d="m 153.906,226.193 h -8.749 v 6.415 h 8.749 z" /><path
           id="path184"
           style="fill:#b6bfc0;fill-opacity:1;fill-rule:nonzero;stroke:none"
           d="m 214.411,228.234 h -58.464 v 2.479 h 58.464 z" /><path
           id="path186"
           style="fill:#b6bfc0;fill-opacity:1;fill-rule:nonzero;stroke:none"
           d="m 214.411,219.631 h -58.464 v 2.479 h 58.464 z" /><path
           id="path188"
           style="fill:#b6bfc0;fill-opacity:1;fill-rule:nonzero;stroke:none"
           d="m 197.206,210.737 h -41.259 v 2.479 h 41.259 z" /><path
           id="path190"
           style="fill:#475056;fill-opacity:1;fill-rule:nonzero;stroke:none"
           d="m 233.34,225.393 h -8.749 v 6.414 h 8.749 z" /><path
           id="path192"
           style="fill:#b6bfc0;fill-opacity:1;fill-rule:nonzero;stroke:none"
           d="m 293.844,227.432 h -58.463 v 2.479 h 58.463 z" /><path
           id="path194"
           style="fill:#b6bfc0;fill-opacity:1;fill-rule:nonzero;stroke:none"
           d="m 293.844,218.828 h -58.463 v 2.479 h 58.463 z" /><path
           id="path196"
           style="fill:#b6bfc0;fill-opacity:1;fill-rule:nonzero;stroke:none"
           d="m 276.638,209.934 h -41.257 v 2.48 h 41.257 z" /><g
           transform="translate(381.1279,297.4102)"
           id="g198"><path
             id="path200"
             style="fill:#f4db81;fill-opacity:1;fill-rule:nonzero;stroke:none"
             d="M 0,0 -36.312,51.304 C -52.373,39.912 -62.868,21.187 -62.868,0 c 0,-34.721 28.149,-62.869 62.868,-62.869 27.645,0 51.102,17.85 59.525,42.645 z" /></g><g
           transform="translate(381.1279,360.2773)"
           id="g202"><path
             id="path204"
             style="fill:#ff876c;fill-opacity:1;fill-rule:nonzero;stroke:none"
             d="m 0,0 v -62.867 l 59.525,-20.224 c 2.156,6.349 3.343,13.146 3.343,20.224 C 62.868,-28.148 34.719,0 0,0" /></g><g
           transform="translate(371.2109,359.4912)"
           id="g206"><path
             id="path208"
             style="fill:#04c4db;fill-opacity:1;fill-rule:nonzero;stroke:none"
             d="M 0,0 9.917,-62.081 V 0.786 C 6.543,0.786 3.233,0.513 0,0" /></g><g
           transform="translate(371.2109,359.4912)"
           id="g210"><path
             id="path212"
             style="fill:#484e57;fill-opacity:1;fill-rule:nonzero;stroke:none"
             d="M 0,0 C -9.723,-1.542 -18.695,-5.318 -26.395,-10.777 L 9.917,-62.081 Z" /></g><path
           id="path214"
           style="fill:#5a6173;fill-opacity:1;fill-rule:nonzero;stroke:none"
           d="M 335.701,163.465 H 213.009 v 6.393 h 122.692 z" /><path
           id="path216"
           style="fill:#475058;fill-opacity:1;fill-rule:nonzero;stroke:none"
           d="M 333.412,182.906 H 215.526 v -13.049 h 117.886 z" /><g
           transform="translate(295.3584,211.2695)"
           id="g218"><path
             id="path220"
             style="fill:#b7bfc0;fill-opacity:1;fill-rule:nonzero;stroke:none"
             d="m 0,0 h -9.875 c -0.557,2.652 -3.437,4.692 -6.898,4.692 h -18.95 c -3.858,0 -7.011,-2.528 -7.011,-5.619 0,-3.09 3.153,-5.618 7.011,-5.618 h 18.95 c 2.261,0 4.258,0.881 5.544,2.222 H 0 Z" /></g><path
           id="path222"
           style="fill:#b7bfc0;fill-opacity:1;fill-rule:nonzero;stroke:none"
           d="M 307.458,199.043 H 294.12 v 21.119 h 13.338 z" /><path
           id="path224"
           style="fill:#b7bfc0;fill-opacity:1;fill-rule:nonzero;stroke:none"
           d="m 309.722,220.162 h -33.139 v 2.223 h 33.139 z" /><g
           transform="translate(309.8159,325.5977)"
           id="g226"><path
             id="path228"
             style="fill:#b7bfc0;fill-opacity:1;fill-rule:nonzero;stroke:none"
             d="m 0,0 c 0,0 52.974,-4.624 54.736,-63.63 1.76,-59.004 -49.759,-70.894 -49.759,-70.894 l -9.417,17.836 c 0,0 35.15,-1.297 34.739,51.77 -0.416,53.066 -37.21,56.11 -45.386,24.844 v 19.142 z" /></g><g
           transform="translate(294.729,180.8437)"
           id="g230"><path
             id="path232"
             style="fill:#475058;fill-opacity:1;fill-rule:nonzero;stroke:none"
             d="m 0,0 v 19 c 0,0 7.78,23.806 20.83,4.578 0,0 9.156,-16.481 9.156,-23.578 z" /></g><g
           transform="translate(312.1299,200.7598)"
           id="g234"><path
             id="path236"
             style="fill:#d2d1d7;fill-opacity:1;fill-rule:nonzero;stroke:none"
             d="m 0,0 c 0,-3.729 -3.022,-6.753 -6.754,-6.753 -3.728,0 -6.752,3.024 -6.752,6.753 0,3.728 3.024,6.751 6.752,6.751 C -3.022,6.751 0,3.728 0,0" /></g><g
           transform="translate(292.2271,373.665)"
           id="g238"><path
             id="path240"
             style="fill:#b7bfc0;fill-opacity:1;fill-rule:nonzero;stroke:none"
             d="M 0,0 H -2.633 V 24.233 H -28.664 V 0 h -2.171 v -6.706 h 2.171 V -67.325 H -2.633 V -6.706 H 0 Z" /></g><g
           transform="translate(287.6904,287.1406)"
           id="g242"><path
             id="path244"
             style="fill:#b7bfc0;fill-opacity:1;fill-rule:nonzero;stroke:none"
             d="m 0,0 h -21.967 v -10.104 h 2.268 V -31.971 H -1.96 v 21.867 H 0 Z" /></g><path
           id="path246"
           style="fill:#494f57;fill-opacity:1;fill-rule:nonzero;stroke:none"
           d="m 294.729,285.523 h -35.896 v 70.63 h 35.896 z" /><g
           transform="translate(312.2734,319.5479)"
           id="g248"><path
             id="path250"
             style="fill:#b7bfc0;fill-opacity:1;fill-rule:nonzero;stroke:none"
             d="m 0,0 c 0,-8.333 -6.758,-15.089 -15.092,-15.089 -8.335,0 -15.093,6.756 -15.093,15.089 0,8.336 6.758,15.091 15.093,15.091 C -6.758,15.091 0,8.336 0,0" /></g><g
           transform="translate(297.1812,306.915)"
           id="g252"><path
             id="path254"
             style="fill:#494f57;fill-opacity:1;fill-rule:nonzero;stroke:none"
             d="m 0,0 c -6.968,0 -12.635,5.666 -12.635,12.633 0,6.969 5.667,12.637 12.635,12.637 6.968,0 12.635,-5.668 12.635,-12.637 C 12.635,5.666 6.968,0 0,0" /></g><path
           id="path256"
           style="fill:#494f57;fill-opacity:1;fill-rule:nonzero;stroke:none"
           d="m 312.273,228.749 h -76.817 v -6.364 h 76.817 z" /></g></g><text
       id="text260"
       style="font-variant:normal;font-weight:normal;font-stretch:normal;font-size:35.18090057px;font-family:'Myriad Pro';-inkscape-font-specification:MyriadPro-Regular;writing-mode:lr-tb;fill:#929596;fill-opacity:1;fill-rule:nonzero;stroke:none"
       transform="matrix(1,0,0,-1,111.0034,37.6182)"><tspan
         id="tspan258"
         y="0"
         x="0 27.933634 49.464344 68.39167 87.459717 105.33161 122.81652 130.27487 149.20219 166.5112 183.85538 201.16438 222.6951 241.72797 262.13287">MARKET RESEARCH</tspan></text>
<g
       id="g262"><g
         clip-path="url(#clipPath268)"
         id="g264"><g
           transform="translate(618.3711,668.7715)"
           id="g270"><path
             id="path272"
             style="fill:#f6fafd;fill-opacity:1;fill-rule:evenodd;stroke:none"
             d="m 0,0 33.837,48.418 h 23.38 L 20.021,-2.593 Z" /></g><g
           transform="translate(620.6328,720.5923)"
           id="g274"><path
             id="path276"
             style="fill:#484f59;fill-opacity:1;fill-rule:nonzero;stroke:none"
             d="M 0,0 C 0,22.987 18.704,41.692 41.692,41.692 64.683,41.692 83.387,22.987 83.387,0 83.387,-22.987 64.683,-41.692 41.692,-41.692 18.704,-41.692 0,-22.987 0,0 m 119.49,-10.175 13.229,3.727 -0.732,23.209 -14.356,3.087 c -0.792,3.04 -1.777,6.003 -2.915,8.886 L 125.294,39.365 113.265,59.226 98.111,54.52 c -1.918,1.983 -3.933,3.873 -6.052,5.648 L 96.336,75.63 76.104,87.032 64.772,75.021 c -2.442,0.75 -4.935,1.385 -7.472,1.898 L 53.305,93.013 H 30.082 L 26.088,76.919 C 23.286,76.354 20.54,75.633 17.854,74.776 L 6.396,86.667 -13.718,75.057 -9.276,59.646 c -2.45,-2.096 -4.78,-4.327 -6.954,-6.706 l -15.21,4.264 -11.472,-20.189 10.811,-10.269 c -1.372,-3.785 -2.451,-7.705 -3.232,-11.734 l -14,-3.946 0.728,-23.214 13.271,-2.853 c 0.688,-3.546 1.619,-7.002 2.766,-10.36 l -9.341,-9.387 12.029,-19.866 11.887,3.697 c 2.553,-2.989 5.323,-5.782 8.291,-8.356 l -3.249,-11.745 20.232,-11.401 8.024,8.507 c 3.863,-1.38 7.867,-2.458 11.982,-3.221 l 2.795,-11.265 h 23.223 l 2.796,11.265 c 4.397,0.818 8.671,1.984 12.778,3.502 l 8.111,-8.418 20.105,11.609 -3.369,11.719 c 3.28,2.91 6.315,6.086 9.069,9.501 l 12.031,-3.374 11.468,20.189 -9.629,9.155 c 1.307,4.214 2.245,8.587 2.825,13.075" /></g><g
           transform="translate(662.3252,678.8999)"
           id="g278"><path
             id="path280"
             style="fill:#323940;fill-opacity:1;fill-rule:nonzero;stroke:none"
             d="m 0,0 c -22.988,0 -41.692,18.705 -41.692,41.692 0,22.987 18.704,41.693 41.692,41.693 22.99,0 41.694,-18.706 41.694,-41.693 C 41.694,18.705 22.99,0 0,0 m 0,93.513 c -28.574,0 -51.82,-23.247 -51.82,-51.821 0,-28.573 23.246,-51.82 51.82,-51.82 28.575,0 51.822,23.247 51.822,51.82 0,28.574 -23.247,51.821 -51.822,51.821" /></g><g
           transform="translate(801.2891,777.7827)"
           id="g282"><path
             id="path284"
             style="fill:#f1dc7d;fill-opacity:1;fill-rule:nonzero;stroke:none"
             d="m 0,0 c -12.725,0 -23.074,10.35 -23.074,23.071 0,12.721 10.349,23.073 23.074,23.073 12.721,0 23.073,-10.352 23.073,-23.073 C 23.073,10.35 12.721,0 0,0 m 52.996,16.139 9.013,2.54 -0.5,15.811 -9.778,2.103 c -0.541,2.073 -1.212,4.087 -1.988,6.055 l 7.204,7.241 -8.193,13.528 -10.32,-3.204 c -1.308,1.351 -2.682,2.64 -4.124,3.847 l 2.912,10.535 -13.781,7.764 -7.719,-8.178 c -1.666,0.51 -3.363,0.942 -5.092,1.291 L 7.907,86.436 H -7.912 l -2.719,-10.964 c -1.911,-0.386 -3.782,-0.877 -5.613,-1.46 l -7.803,8.103 -13.703,-7.911 3.025,-10.5 c -1.669,-1.43 -3.254,-2.947 -4.738,-4.569 l -10.36,2.906 -7.815,-13.753 7.366,-6.994 c -0.935,-2.582 -1.67,-5.252 -2.203,-7.996 l -9.537,-2.689 0.496,-15.814 9.041,-1.941 c 0.467,-2.416 1.103,-4.771 1.883,-7.059 l -6.362,-6.396 8.193,-13.533 8.099,2.52 c 1.742,-2.039 3.627,-3.941 5.645,-5.693 l -2.21,-8.002 13.785,-7.767 5.465,5.797 c 2.629,-0.943 5.357,-1.677 8.161,-2.194 l 1.904,-7.677 H 7.907 l 1.906,7.677 c 2.997,0.554 5.909,1.35 8.705,2.384 l 5.525,-5.735 13.697,7.908 -2.296,7.986 c 2.234,1.978 4.304,4.144 6.177,6.472 l 8.2,-2.299 7.809,13.752 -6.56,6.236 c 0.891,2.872 1.531,5.852 1.926,8.908" /></g><g
           transform="translate(801.2891,772.4517)"
           id="g286"><path
             id="path288"
             style="fill:#edcb69;fill-opacity:1;fill-rule:nonzero;stroke:none"
             d="m 0,0 c -15.659,0 -28.405,12.742 -28.405,28.402 0,15.662 12.746,28.404 28.405,28.404 15.66,0 28.404,-12.742 28.404,-28.404 C 28.404,12.742 15.66,0 0,0 m 0,63.707 c -19.466,0 -35.305,-15.837 -35.305,-35.305 0,-19.465 15.839,-35.3 35.305,-35.3 19.465,0 35.302,15.835 35.302,35.3 C 35.302,47.87 19.465,63.707 0,63.707" /></g><g
           transform="translate(615.4658,854.8525)"
           id="g290"><path
             id="path292"
             style="fill:#ffffff;fill-opacity:1;fill-rule:evenodd;stroke:none"
             d="m 0,0 c -6.396,0 -11.581,-5.185 -11.581,-11.58 0,-6.397 5.185,-11.581 11.581,-11.581 6.396,0 11.583,5.184 11.583,11.581 C 11.583,-5.185 6.396,0 0,0 m 0,-25.09 c -7.461,0 -13.511,6.047 -13.511,13.51 0,7.462 6.05,13.511 13.511,13.511 7.462,0 13.512,-6.049 13.512,-13.511 0,-7.463 -6.05,-13.51 -13.512,-13.51 M 0,3.863 c -8.527,0 -15.44,-6.916 -15.44,-15.443 0,-8.528 6.913,-15.439 15.44,-15.439 8.528,0 15.441,6.911 15.441,15.439 C 15.441,-3.053 8.528,3.863 0,3.863 M 23.163,-9.649 v -3.86 h -2.029 c -0.05,-0.568 -0.135,-1.12 -0.229,-1.674 l 1.968,-0.526 -0.999,-3.73 -1.97,0.526 c -0.195,-0.529 -0.408,-1.049 -0.642,-1.557 l 1.763,-1.02 -1.929,-3.343 -1.763,1.018 c -0.324,-0.46 -0.657,-0.916 -1.021,-1.348 l 1.431,-1.429 -2.728,-2.731 -1.43,1.429 c -0.433,-0.359 -0.889,-0.695 -1.351,-1.018 l 1.02,-1.761 -3.344,-1.932 -1.019,1.765 c -0.507,-0.234 -1.028,-0.448 -1.558,-0.646 l 0.526,-1.968 -3.729,-1 -0.526,1.969 C 3.05,-32.579 2.495,-32.663 1.931,-32.714 v -2.028 H -1.93 v 2.028 c -0.564,0.051 -1.122,0.135 -1.672,0.229 l -0.527,-1.969 -3.73,1 0.527,1.968 c -0.53,0.198 -1.05,0.412 -1.558,0.646 l -1.019,-1.765 -3.343,1.932 1.019,1.761 c -0.462,0.323 -0.918,0.659 -1.35,1.018 l -1.431,-1.429 -2.729,2.731 1.432,1.429 c -0.364,0.432 -0.697,0.888 -1.022,1.348 l -1.762,-1.018 -1.929,3.343 1.762,1.02 c -0.235,0.508 -0.446,1.028 -0.641,1.557 l -1.97,-0.526 -0.999,3.73 1.968,0.526 c -0.094,0.554 -0.179,1.106 -0.229,1.674 h -2.029 v 3.86 h 2.029 c 0.05,0.565 0.135,1.122 0.229,1.674 l -1.968,0.526 0.999,3.73 1.97,-0.529 c 0.195,0.531 0.406,1.052 0.641,1.559 l -1.762,1.018 1.929,3.342 1.762,-1.015 c 0.325,0.461 0.658,0.917 1.022,1.349 l -1.432,1.429 2.729,2.73 1.431,-1.432 c 0.432,0.362 0.888,0.698 1.35,1.021 l -1.019,1.76 3.343,1.931 1.019,-1.759 c 0.508,0.234 1.028,0.444 1.558,0.64 l -0.527,1.967 3.73,1 0.527,-1.968 c 0.55,0.094 1.108,0.177 1.672,0.23 v 2.03 H 1.931 V 9.554 C 2.495,9.501 3.05,9.418 3.604,9.324 l 0.526,1.968 3.729,-1 L 7.333,8.325 C 7.863,8.129 8.384,7.919 8.891,7.685 L 9.91,9.444 13.254,7.513 12.234,5.753 C 12.696,5.43 13.152,5.094 13.585,4.732 l 1.43,1.432 2.728,-2.73 -1.431,-1.429 c 0.364,-0.432 0.697,-0.888 1.021,-1.349 l 1.763,1.015 1.929,-3.342 -1.763,-1.018 c 0.234,-0.507 0.447,-1.028 0.642,-1.559 l 1.97,0.529 0.999,-3.73 -1.968,-0.526 c 0.094,-0.552 0.179,-1.109 0.229,-1.674 z" /></g><g
           transform="translate(670.7422,905.9707)"
           id="g294"><path
             id="path296"
             style="fill:#ff876c;fill-opacity:1;fill-rule:nonzero;stroke:none"
             d="m 0,0 c -11.731,-8.67 -19.373,-22.558 -19.373,-38.265 0,-26.284 21.312,-47.595 47.598,-47.595 21.214,0 39.171,13.89 45.318,33.063 l -45.318,14.532 z" /></g><g
           transform="translate(698.9668,915.3047)"
           id="g298"><path
             id="path300"
             style="fill:#f4db81;fill-opacity:1;fill-rule:nonzero;stroke:none"
             d="m 0,0 v -47.599 l 45.318,-14.532 c 1.47,4.584 2.279,9.462 2.279,14.532 C 47.597,-21.313 26.286,0 0,0" /></g><g
           transform="translate(698.9668,915.3047)"
           id="g302"><path
             id="path304"
             style="fill:#f5fbfa;fill-opacity:1;fill-rule:nonzero;stroke:none"
             d="M 0,0 C -10.579,0 -20.32,-3.496 -28.225,-9.334 L 0,-47.599 Z" /></g><g
           transform="translate(652.208,717.1899)"
           id="g306"><path
             id="path308"
             style="fill:#f88b65;fill-opacity:1;fill-rule:evenodd;stroke:none"
             d="M 0,0 66.597,-87.143 H 89.622 L 23.38,0 Z" /></g><g
           transform="translate(718.8047,630.0469)"
           id="g310"><path
             id="path312"
             style="fill:#f5f5fa;fill-opacity:1;fill-rule:evenodd;stroke:none"
             d="M 0,0 62.343,87.143 H 84.306 L 23.025,0 Z" /></g><g
           transform="translate(781.1475,717.1899)"
           id="g314"><path
             id="path316"
             style="fill:#fc896b;fill-opacity:1;fill-rule:evenodd;stroke:none"
             d="M 0,0 39.674,-54.554 H 61.993 L 21.963,0 Z" /></g><g
           transform="translate(820.8213,662.6362)"
           id="g318"><path
             id="path320"
             style="fill:#f2f9fc;fill-opacity:1;fill-rule:evenodd;stroke:none"
             d="M 0,0 65.887,92.808 H 52.071 l 52.073,45.411 v -44.7 L 90.329,93.164 22.319,0 Z" /></g><g
           transform="translate(747.4941,620.4834)"
           id="g322"><path
             id="path324"
             style="fill:none;stroke:#f2f9fc;stroke-width:2.66499996;stroke-linecap:butt;stroke-linejoin:miter;stroke-miterlimit:10;stroke-dasharray:none;stroke-opacity:1"
             d="M 0,0 47.823,65.533" /></g><g
           transform="translate(844.9092,645.6333)"
           id="g326"><path
             id="path328"
             style="fill:none;stroke:#f2f9fc;stroke-width:2.66499996;stroke-linecap:butt;stroke-linejoin:miter;stroke-miterlimit:10;stroke-dasharray:none;stroke-opacity:1"
             d="M 0,0 68.72,95" /></g></g></g><text
       id="text332"
       style="font-variant:normal;font-weight:normal;font-stretch:normal;font-size:33.42250061px;font-family:'Myriad Pro';-inkscape-font-specification:MyriadPro-Regular;writing-mode:lr-tb;fill:#ffffff;fill-opacity:1;fill-rule:nonzero;stroke:none"
       transform="matrix(1,0,0,-1,577.0742,544.7461)"><tspan
         id="tspan330"
         y="0"
         x="0 18.683178 41.711281 63.703285 80.31427 96.758141 118.75014 135.36113 142.4467 168.98416 189.43874 211.43074 231.38397 252.9749 269.41876 296.29047 312.73434 334.72635">CONTENT MANAGEMENT</tspan></text>
<g
       id="g334"><g
         clip-path="url(#clipPath340)"
         id="g336"><g
           transform="translate(809.8887,143.8184)"
           id="g342"><path
             id="path344"
             style="fill:#9d0c30;fill-opacity:1;fill-rule:nonzero;stroke:none"
             d="m 0,0 c -0.874,-9.535 -8.176,-16.732 -16.222,-15.996 -8.051,0.74 -13.921,9.142 -13.049,18.674 l 0.873,9.507 c 0.869,9.534 8.171,16.731 16.221,15.993 C -4.131,27.44 1.742,19.038 0.869,9.502 Z" /></g><g
           transform="translate(735.7764,151.9658)"
           id="g346"><path
             id="path348"
             style="fill:#9d0c30;fill-opacity:1;fill-rule:nonzero;stroke:none"
             d="m 0,0 c -0.873,-9.535 -8.172,-16.735 -16.22,-15.996 -8.05,0.737 -13.921,9.142 -13.049,18.674 l 0.872,9.504 c 0.873,9.534 8.173,16.734 16.222,15.996 C -4.127,27.44 1.743,19.035 0.871,9.503 Z" /></g><g
           transform="translate(693.3496,321.9287)"
           id="g350"><path
             id="path352"
             style="fill:#9d0c30;fill-opacity:1;fill-rule:nonzero;stroke:none"
             d="m 0,0 c 0,0 10.409,-7.069 6.366,-36.83 l 20.864,0.88 1.206,13.164 c 0,0 0.671,22.201 -28.436,22.786" /></g><g
           transform="translate(876.0088,202.5293)"
           id="g354"><path
             id="path356"
             style="fill:#c72343;fill-opacity:1;fill-rule:nonzero;stroke:none"
             d="m 0,0 c -2.891,0.265 -5.022,2.829 -4.76,5.716 0.266,2.894 2.829,5.026 5.72,4.763 C 3.85,10.214 5.982,7.65 5.718,4.758 5.452,1.869 2.888,-0.263 0,0 M 27.944,4.714 C 20.784,17.513 8.776,18.96 8.776,18.96 2.313,31.701 -24.331,30.332 -24.331,30.332 l -3.854,-9.376 C -15.658,22.932 -6.441,21.092 0.08,18.223 -6.395,18.031 -11.858,13.04 -12.464,6.42 -13.117,-0.722 -7.852,-7.05 -0.706,-7.703 6.441,-8.358 12.767,-3.094 13.423,4.053 13.546,5.393 13.46,6.707 13.194,7.956 13.264,7.854 13.297,7.79 13.297,7.79 16.932,5.722 19.93,0.588 19.93,0.588 c 9.382,-7.452 8.014,4.126 8.014,4.126" /></g><g
           transform="translate(757.6055,297.9883)"
           id="g358"><path
             id="path360"
             style="fill:#d92a53;fill-opacity:1;fill-rule:nonzero;stroke:none"
             d="m 0,0 c -25.682,2.352 -49.834,0.19 -69.087,-7.652 -0.882,5.911 -5.386,19.676 -28.226,20.137 0,0 9.523,-6.484 6.807,-33.111 -9.17,-8.098 -15.822,-18.652 -19.089,-31.982 l -15.036,1.376 c -2.118,0.193 -4.009,-1.382 -4.203,-3.504 l -2.997,-32.733 c -0.194,-2.12 1.379,-4.013 3.497,-4.206 l 19.637,-1.798 c 5.767,-17.337 18.854,-31.291 36.647,-41.265 -0.284,-1.079 -0.492,-2.205 -0.598,-3.366 l -0.87,-9.504 c -0.822,-8.975 4.334,-16.943 11.653,-18.466 L 55.6,-13.119 C 39.721,-6.021 20.553,-1.882 0,0" /></g><g
           transform="translate(855.4043,212.6104)"
           id="g362"><path
             id="path364"
             style="fill:#cb2344;fill-opacity:1;fill-rule:nonzero;stroke:none"
             d="M 0,0 C 4.545,36.758 -13.392,59.388 -42.199,72.259 L -159.664,-80.696 c 0.459,-0.094 0.923,-0.167 1.393,-0.211 8.05,-0.737 15.351,6.464 16.224,15.996 l 0.379,4.137 c 9.414,-2.632 19.478,-4.462 29.991,-5.423 3.576,-0.328 7.147,-0.534 10.695,-0.624 l -0.17,-1.833 c -0.871,-9.535 5.001,-17.941 13.047,-18.677 8.048,-0.736 15.351,6.464 16.221,15.996 l 0.605,6.574 C -30.527,-57.911 1.299,-34.61 0,0" /></g><g
           transform="translate(628.5459,240.8008)"
           id="g366"><path
             id="path368"
             style="fill:#9b0b30;fill-opacity:1;fill-rule:nonzero;stroke:none"
             d="M 0,0 C 0,0 12.271,-14.978 -2.516,-27.475 Z" /></g><g
           transform="translate(665.7002,243.5996)"
           id="g370"><path
             id="path372"
             style="fill:#3f0917;fill-opacity:1;fill-rule:nonzero;stroke:none"
             d="m 0,0 c 0.331,3.612 3.537,6.283 7.148,5.95 3.611,-0.329 6.28,-3.538 5.95,-7.147 l 3.08,-0.284 C 16.665,3.836 12.747,8.543 7.431,9.032 2.112,9.518 -2.594,5.599 -3.08,0.283 Z" /></g><g
           transform="translate(712.6035,292.3975)"
           id="g374"><path
             id="path376"
             style="fill:#4a0114;fill-opacity:1;fill-rule:nonzero;stroke:none"
             d="m 0,0 c 0,0 37.785,3.746 92.309,-8.449 l -4.754,-6.472 c 0,0 -44.011,10.631 -83.282,7.63 z" /></g><g
           transform="translate(781.8447,166.5293)"
           id="g378"><path
             id="path380"
             style="fill:#df446d;fill-opacity:1;fill-rule:nonzero;stroke:none"
             d="m 0,0 c 0.786,-3.772 -0.354,-7.205 -2.549,-7.663 -2.199,-0.462 -4.62,2.226 -5.409,5.992 C -8.746,2.105 -7.609,5.536 -5.41,6 -3.212,6.452 -0.792,3.774 0,0" /></g><g
           transform="translate(844.4434,198.041)"
           id="g382"><path
             id="path384"
             style="fill:#df446d;fill-opacity:1;fill-rule:nonzero;stroke:none"
             d="M 0,0 C 0,0 -14.071,-17.814 -43.154,-20.979 -72.235,-24.135 -55.516,-33.691 -51.078,-34.154 -30.011,-36.089 -17.755,-24.591 0,0" /></g><g
           transform="translate(815.8701,337.666)"
           id="g386"><path
             id="path388"
             style="fill:#cdd5d7;fill-opacity:1;fill-rule:nonzero;stroke:none"
             d="m 0,0 c 0,-29.091 -23.583,-52.666 -52.664,-52.666 -29.084,0 -52.665,23.575 -52.665,52.666 0,29.086 23.581,52.662 52.665,52.662 C -23.583,52.662 0,29.086 0,0" /></g><g
           transform="translate(763.2061,288.4648)"
           id="g390"><path
             id="path392"
             style="fill:#ebeff4;fill-opacity:1;fill-rule:nonzero;stroke:none"
             d="m 0,0 c -27.129,0 -49.2,22.073 -49.2,49.201 0,27.127 22.071,49.197 49.2,49.197 27.129,0 49.196,-22.07 49.196,-49.197 C 49.196,22.073 27.129,0 0,0" /></g><g
           transform="translate(763.2061,290.8643)"
           id="g394"><path
             id="path396"
             style="fill:#484e58;fill-opacity:1;fill-rule:nonzero;stroke:none"
             d="m 0,0 c -25.808,0 -46.802,20.996 -46.802,46.802 0,25.803 20.994,46.797 46.802,46.797 25.806,0 46.8,-20.994 46.8,-46.797 C 46.8,20.996 25.806,0 0,0" /></g><g
           transform="translate(763.1533,379.9189)"
           id="g398"><path
             id="path400"
             style="fill:#ffffff;fill-opacity:1;fill-rule:nonzero;stroke:none"
             d="M 0,0 C 0,0 0.105,-0.143 0.259,-0.392 0.335,-0.517 0.428,-0.668 0.516,-0.842 0.562,-0.929 0.611,-1.021 0.663,-1.119 0.715,-1.216 0.646,-1.318 0.666,-1.426 V -4.562 -7.698 C 0.645,-7.806 0.716,-7.908 0.655,-8.005 0.603,-8.103 0.554,-8.195 0.507,-8.282 0.418,-8.456 0.326,-8.607 0.252,-8.732 0.101,-8.981 0,-9.124 0,-9.124 c 0,0 -0.101,0.143 -0.252,0.392 -0.074,0.125 -0.166,0.276 -0.255,0.45 -0.047,0.087 -0.096,0.179 -0.148,0.277 -0.061,0.097 0.01,0.199 -0.011,0.307 v 3.136 3.136 c 0.02,0.108 -0.049,0.21 0.003,0.307 0.052,0.098 0.101,0.19 0.147,0.277 0.088,0.174 0.181,0.325 0.257,0.45 C -0.105,-0.143 0,0 0,0" /></g><g
           transform="translate(763.1533,305.8887)"
           id="g402"><path
             id="path404"
             style="fill:#ffffff;fill-opacity:1;fill-rule:nonzero;stroke:none"
             d="M 0,0 C 0,0 0.105,-0.143 0.259,-0.392 0.335,-0.517 0.428,-0.668 0.516,-0.842 0.562,-0.929 0.611,-1.021 0.663,-1.119 0.715,-1.216 0.646,-1.318 0.666,-1.426 V -4.562 -7.697 C 0.645,-7.805 0.716,-7.907 0.655,-8.004 0.603,-8.102 0.554,-8.194 0.507,-8.281 0.418,-8.455 0.326,-8.606 0.252,-8.731 0.101,-8.98 0,-9.123 0,-9.123 c 0,0 -0.101,0.143 -0.252,0.392 -0.074,0.125 -0.166,0.276 -0.255,0.45 -0.047,0.087 -0.096,0.179 -0.148,0.277 -0.061,0.097 0.01,0.199 -0.011,0.307 v 3.135 3.136 c 0.02,0.108 -0.049,0.21 0.003,0.307 0.052,0.098 0.101,0.19 0.147,0.277 0.088,0.174 0.181,0.325 0.257,0.45 C -0.105,-0.143 0,0 0,0" /></g><g
           transform="translate(742.3652,374.3506)"
           id="g406"><path
             id="path408"
             style="fill:#ffffff;fill-opacity:1;fill-rule:nonzero;stroke:none"
             d="M 0,0 C 0,0 0.162,-0.071 0.42,-0.21 0.549,-0.28 0.704,-0.365 0.868,-0.472 0.951,-0.523 1.04,-0.579 1.134,-0.638 1.227,-0.696 1.219,-0.819 1.29,-0.902 1.718,-1.644 2.288,-2.632 2.858,-3.619 L 4.427,-6.337 C 4.461,-6.44 4.574,-6.493 4.57,-6.608 4.574,-6.719 4.577,-6.824 4.581,-6.922 4.591,-7.117 4.587,-7.295 4.585,-7.439 4.578,-7.731 4.562,-7.905 4.562,-7.905 c 0,0 -0.158,0.073 -0.414,0.214 -0.127,0.071 -0.282,0.156 -0.446,0.261 -0.083,0.053 -0.173,0.109 -0.266,0.166 -0.102,0.054 -0.091,0.179 -0.164,0.261 -0.427,0.741 -0.998,1.73 -1.568,2.717 l -1.568,2.718 c -0.036,0.102 -0.147,0.157 -0.152,0.267 -0.003,0.111 -0.006,0.215 -0.009,0.314 -0.011,0.194 -0.006,0.372 -0.003,0.518 C -0.02,-0.176 0,0 0,0" /></g><g
           transform="translate(779.3809,310.2393)"
           id="g410"><path
             id="path412"
             style="fill:#ffffff;fill-opacity:1;fill-rule:nonzero;stroke:none"
             d="M 0,0 C 0,0 0.162,-0.071 0.42,-0.21 0.549,-0.28 0.704,-0.365 0.868,-0.472 0.951,-0.523 1.04,-0.579 1.134,-0.638 1.227,-0.696 1.219,-0.819 1.29,-0.901 1.718,-1.643 2.288,-2.631 2.857,-3.618 3.428,-4.606 3.998,-5.595 4.426,-6.335 4.46,-6.438 4.574,-6.492 4.569,-6.606 4.573,-6.718 4.576,-6.822 4.58,-6.921 4.59,-7.115 4.586,-7.293 4.584,-7.437 4.578,-7.729 4.562,-7.903 4.562,-7.903 c 0,0 -0.16,0.073 -0.415,0.214 -0.126,0.071 -0.282,0.156 -0.446,0.261 -0.083,0.053 -0.172,0.108 -0.265,0.166 -0.103,0.054 -0.092,0.179 -0.165,0.26 -0.427,0.741 -0.998,1.73 -1.568,2.717 -0.569,0.988 -1.14,1.976 -1.567,2.717 -0.036,0.103 -0.147,0.157 -0.152,0.267 -0.004,0.111 -0.006,0.215 -0.009,0.314 -0.011,0.194 -0.006,0.372 -0.003,0.518 C -0.02,-0.176 0,0 0,0" /></g><g
           transform="translate(727.1484,359.1338)"
           id="g414"><path
             id="path416"
             style="fill:#ffffff;fill-opacity:1;fill-rule:nonzero;stroke:none"
             d="M 0,0 C 0,0 0.176,0.02 0.469,0.028 0.615,0.031 0.793,0.036 0.987,0.025 1.086,0.021 1.19,0.019 1.301,0.015 1.411,0.01 1.466,-0.101 1.568,-0.137 c 0.741,-0.427 1.729,-0.999 2.716,-1.569 0.988,-0.571 1.976,-1.142 2.717,-1.57 0.082,-0.073 0.206,-0.062 0.26,-0.163 0.058,-0.094 0.114,-0.183 0.166,-0.267 0.106,-0.164 0.191,-0.319 0.261,-0.446 0.141,-0.255 0.214,-0.414 0.214,-0.414 0,0 -0.173,-0.016 -0.465,-0.023 C 7.292,-4.59 7.114,-4.594 6.919,-4.584 6.821,-4.581 6.716,-4.577 6.605,-4.573 6.49,-4.578 6.437,-4.465 6.334,-4.43 5.594,-4.002 4.605,-3.431 3.618,-2.86 2.63,-2.289 1.643,-1.719 0.901,-1.29 0.818,-1.22 0.696,-1.228 0.637,-1.135 0.578,-1.041 0.523,-0.952 0.471,-0.868 0.365,-0.704 0.28,-0.549 0.21,-0.421 0.07,-0.163 0,0 0,0" /></g><g
           transform="translate(791.2568,322.1162)"
           id="g418"><path
             id="path420"
             style="fill:#ffffff;fill-opacity:1;fill-rule:nonzero;stroke:none"
             d="M 0,0 C 0,0 0.176,0.021 0.469,0.028 0.615,0.031 0.792,0.036 0.987,0.026 1.086,0.022 1.19,0.02 1.301,0.016 1.41,0.011 1.465,-0.1 1.567,-0.136 c 0.742,-0.427 1.73,-0.997 2.717,-1.567 0.988,-0.57 1.976,-1.14 2.717,-1.568 0.081,-0.072 0.206,-0.061 0.26,-0.164 0.058,-0.093 0.113,-0.182 0.166,-0.265 0.105,-0.164 0.191,-0.32 0.261,-0.446 0.141,-0.255 0.214,-0.415 0.214,-0.415 0,0 -0.173,-0.016 -0.465,-0.022 C 7.292,-4.585 7.114,-4.589 6.92,-4.579 6.821,-4.575 6.717,-4.572 6.606,-4.568 6.491,-4.573 6.438,-4.46 6.335,-4.425 5.594,-3.997 4.605,-3.428 3.618,-2.857 2.63,-2.287 1.643,-1.718 0.901,-1.29 0.819,-1.219 0.696,-1.227 0.638,-1.134 0.579,-1.04 0.523,-0.951 0.472,-0.868 0.365,-0.704 0.28,-0.548 0.21,-0.42 0.071,-0.163 0,0 0,0" /></g><g
           transform="translate(721.5791,338.3437)"
           id="g422"><path
             id="path424"
             style="fill:#ffffff;fill-opacity:1;fill-rule:nonzero;stroke:none"
             d="m 0,0 c 0,0 0.143,0.105 0.393,0.259 0.124,0.075 0.276,0.168 0.45,0.257 0.087,0.046 0.178,0.095 0.276,0.147 0.098,0.051 0.2,-0.017 0.307,0.002 0.855,0 1.996,-0.001 3.136,-0.002 1.141,0 2.282,-0.001 3.137,-0.002 C 7.807,0.64 7.909,0.711 8.007,0.649 8.104,0.598 8.196,0.548 8.283,0.502 8.457,0.413 8.608,0.32 8.733,0.246 8.982,0.095 9.125,-0.006 9.125,-0.006 c 0,0 -0.143,-0.1 -0.393,-0.252 C 8.608,-0.332 8.456,-0.424 8.282,-0.513 8.195,-0.559 8.104,-0.608 8.006,-0.66 c -0.098,-0.062 -0.2,0.011 -0.307,-0.011 -0.855,0 -1.996,0.001 -3.137,0.002 -1.14,0 -2.281,0.001 -3.136,0.002 -0.108,0.021 -0.21,-0.048 -0.308,0.003 -0.097,0.052 -0.189,0.102 -0.276,0.147 -0.174,0.089 -0.325,0.182 -0.45,0.258 C 0.143,-0.105 0,0 0,0" /></g><g
           transform="translate(795.6084,338.3379)"
           id="g426"><path
             id="path428"
             style="fill:#ffffff;fill-opacity:1;fill-rule:nonzero;stroke:none"
             d="m 0,0 c 0,0 0.143,0.105 0.393,0.259 0.124,0.076 0.276,0.169 0.45,0.257 0.086,0.046 0.178,0.095 0.276,0.148 0.098,0.051 0.2,-0.018 0.307,0.002 H 4.563 7.701 C 7.808,0.645 7.91,0.716 8.008,0.654 8.105,0.603 8.198,0.554 8.284,0.507 8.458,0.418 8.61,0.326 8.734,0.252 8.984,0.101 9.127,0 9.127,0 9.127,0 8.984,-0.101 8.734,-0.252 8.61,-0.326 8.458,-0.418 8.284,-0.507 8.198,-0.554 8.105,-0.603 8.008,-0.654 7.91,-0.716 7.808,-0.645 7.701,-0.666 H 4.563 1.426 C 1.319,-0.646 1.217,-0.715 1.119,-0.664 1.021,-0.611 0.929,-0.562 0.843,-0.516 0.669,-0.428 0.517,-0.335 0.393,-0.259 0.143,-0.105 0,0 0,0" /></g><g
           transform="translate(727.1484,317.5557)"
           id="g430"><path
             id="path432"
             style="fill:#ffffff;fill-opacity:1;fill-rule:nonzero;stroke:none"
             d="M 0,0 C 0,0 0.07,0.163 0.21,0.42 0.28,0.548 0.365,0.704 0.472,0.868 0.523,0.951 0.579,1.04 0.638,1.134 0.696,1.227 0.819,1.219 0.901,1.29 1.643,1.718 2.63,2.287 3.618,2.857 4.605,3.428 5.594,3.997 6.335,4.425 6.438,4.46 6.491,4.573 6.606,4.568 6.717,4.572 6.821,4.575 6.92,4.579 7.114,4.589 7.292,4.585 7.437,4.583 7.729,4.577 7.902,4.561 7.902,4.561 c 0,0 -0.073,-0.16 -0.214,-0.415 C 7.618,4.02 7.532,3.864 7.427,3.7 7.375,3.617 7.319,3.528 7.261,3.435 7.207,3.332 7.082,3.343 7.001,3.271 6.26,2.843 5.272,2.273 4.284,1.703 3.297,1.133 2.309,0.563 1.567,0.136 1.465,0.1 1.41,-0.011 1.301,-0.016 1.19,-0.02 1.086,-0.022 0.987,-0.026 0.792,-0.036 0.615,-0.031 0.469,-0.028 0.176,-0.021 0,0 0,0" /></g><g
           transform="translate(791.2568,354.5703)"
           id="g434"><path
             id="path436"
             style="fill:#ffffff;fill-opacity:1;fill-rule:nonzero;stroke:none"
             d="M 0,0 C 0,0 0.071,0.162 0.21,0.42 0.28,0.549 0.365,0.704 0.472,0.868 0.524,0.951 0.579,1.041 0.638,1.135 0.697,1.227 0.82,1.219 0.902,1.29 1.644,1.718 2.632,2.288 3.62,2.859 4.609,3.43 5.598,4 6.339,4.428 6.442,4.462 6.495,4.575 6.61,4.571 6.721,4.575 6.825,4.578 6.924,4.582 7.119,4.592 7.296,4.588 7.441,4.586 7.733,4.58 7.907,4.563 7.907,4.563 7.907,4.563 7.834,4.404 7.693,4.149 7.622,4.022 7.537,3.867 7.431,3.703 7.379,3.619 7.323,3.53 7.265,3.437 7.211,3.335 7.087,3.346 7.005,3.273 L 4.287,1.705 C 3.298,1.134 2.31,0.563 1.568,0.136 1.466,0.1 1.411,-0.011 1.302,-0.016 1.19,-0.019 1.086,-0.022 0.987,-0.025 0.793,-0.036 0.615,-0.031 0.469,-0.028 0.177,-0.02 0,0 0,0" /></g><g
           transform="translate(742.3652,302.3359)"
           id="g438"><path
             id="path440"
             style="fill:#ffffff;fill-opacity:1;fill-rule:nonzero;stroke:none"
             d="m 0,0 c 0,0 -0.02,0.176 -0.028,0.469 -0.003,0.146 -0.008,0.324 0.003,0.518 0.003,0.099 0.006,0.203 0.01,0.314 0.005,0.11 0.116,0.165 0.151,0.267 0.428,0.742 0.999,1.73 1.569,2.718 0.57,0.988 1.142,1.976 1.569,2.717 0.073,0.082 0.062,0.207 0.164,0.261 0.093,0.058 0.182,0.113 0.266,0.166 0.164,0.105 0.319,0.19 0.446,0.261 0.255,0.141 0.414,0.214 0.414,0.214 0,0 0.016,-0.174 0.023,-0.466 C 4.588,7.295 4.593,7.117 4.582,6.922 4.579,6.823 4.575,6.719 4.572,6.608 4.576,6.493 4.463,6.44 4.429,6.337 4,5.596 3.43,4.607 2.859,3.619 2.289,2.631 1.718,1.644 1.29,0.902 1.219,0.819 1.228,0.696 1.135,0.638 1.041,0.579 0.951,0.523 0.868,0.472 0.704,0.365 0.549,0.28 0.42,0.21 0.162,0.07 0,0 0,0" /></g><g
           transform="translate(779.3809,366.4453)"
           id="g442"><path
             id="path444"
             style="fill:#ffffff;fill-opacity:1;fill-rule:nonzero;stroke:none"
             d="m 0,0 c 0,0 -0.02,0.176 -0.028,0.469 -0.003,0.146 -0.008,0.324 0.003,0.518 0.003,0.099 0.005,0.203 0.009,0.314 0.005,0.11 0.116,0.165 0.152,0.267 0.427,0.742 0.998,1.73 1.567,2.718 0.57,0.987 1.141,1.976 1.568,2.717 0.073,0.082 0.062,0.206 0.165,0.261 0.093,0.057 0.182,0.113 0.265,0.166 0.164,0.105 0.32,0.19 0.446,0.261 0.255,0.141 0.415,0.214 0.415,0.214 0,0 0.016,-0.174 0.022,-0.466 C 4.586,7.295 4.59,7.117 4.58,6.922 4.576,6.824 4.573,6.719 4.569,6.608 4.574,6.493 4.461,6.44 4.426,6.337 L 2.857,3.619 C 2.288,2.632 1.718,1.644 1.29,0.902 1.219,0.819 1.227,0.696 1.134,0.638 1.04,0.579 0.951,0.523 0.868,0.472 0.704,0.365 0.549,0.28 0.42,0.21 0.162,0.07 0,0 0,0" /></g><g
           transform="translate(768.335,379.0459)"
           id="g446"><path
             id="path448"
             style="fill:#ffffff;fill-opacity:1;fill-rule:nonzero;stroke:none"
             d="m 0,0 c 0,-0.479 -0.391,-0.866 -0.869,-0.866 -0.482,0 -0.873,0.387 -0.873,0.866 0,0.484 0.391,0.873 0.873,0.873 C -0.391,0.873 0,0.484 0,0" /></g><g
           transform="translate(759.9014,297.6348)"
           id="g450"><path
             id="path452"
             style="fill:#ffffff;fill-opacity:1;fill-rule:nonzero;stroke:none"
             d="m 0,0 c 0,-0.481 -0.392,-0.869 -0.876,-0.869 -0.478,0 -0.869,0.388 -0.869,0.869 0,0.483 0.391,0.872 0.869,0.872 C -0.392,0.872 0,0.483 0,0" /></g><g
           transform="translate(772.4209,378.3223)"
           id="g454"><path
             id="path456"
             style="fill:#ffffff;fill-opacity:1;fill-rule:nonzero;stroke:none"
             d="m 0,0 c -0.047,-0.474 -0.473,-0.819 -0.953,-0.772 -0.479,0.043 -0.824,0.473 -0.78,0.955 0.048,0.476 0.476,0.825 0.958,0.775 C -0.297,0.912 0.05,0.481 0,0" /></g><g
           transform="translate(755.8037,298.1846)"
           id="g458"><path
             id="path460"
             style="fill:#ffffff;fill-opacity:1;fill-rule:nonzero;stroke:none"
             d="m 0,0 c -0.048,-0.482 -0.474,-0.831 -0.953,-0.782 -0.479,0.053 -0.827,0.479 -0.78,0.959 0.046,0.475 0.475,0.827 0.957,0.775 C -0.296,0.905 0.05,0.474 0,0" /></g><g
           transform="translate(776.416,377.1934)"
           id="g462"><path
             id="path464"
             style="fill:#ffffff;fill-opacity:1;fill-rule:nonzero;stroke:none"
             d="m 0,0 c -0.096,-0.472 -0.554,-0.773 -1.027,-0.672 -0.469,0.094 -0.776,0.552 -0.677,1.026 0.097,0.468 0.555,0.77 1.025,0.676 C -0.205,0.935 0.098,0.474 0,0" /></g><g
           transform="translate(751.7861,299.1426)"
           id="g466"><path
             id="path468"
             style="fill:#ffffff;fill-opacity:1;fill-rule:nonzero;stroke:none"
             d="m 0,0 c -0.101,-0.474 -0.56,-0.776 -1.03,-0.683 -0.471,0.102 -0.775,0.56 -0.681,1.032 0.1,0.47 0.561,0.775 1.032,0.678 C -0.209,0.929 0.095,0.471 0,0" /></g><g
           transform="translate(780.2773,375.665)"
           id="g470"><path
             id="path472"
             style="fill:#ffffff;fill-opacity:1;fill-rule:nonzero;stroke:none"
             d="m 0,0 c -0.146,-0.455 -0.633,-0.713 -1.094,-0.569 -0.458,0.142 -0.716,0.631 -0.569,1.09 0.142,0.458 0.633,0.715 1.093,0.57 C -0.113,0.95 0.14,0.464 0,0" /></g><g
           transform="translate(747.8828,300.501)"
           id="g474"><path
             id="path476"
             style="fill:#ffffff;fill-opacity:1;fill-rule:nonzero;stroke:none"
             d="m 0,0 c -0.146,-0.461 -0.635,-0.716 -1.092,-0.57 -0.46,0.146 -0.714,0.632 -0.573,1.091 0.145,0.455 0.636,0.712 1.093,0.572 C -0.112,0.944 0.143,0.458 0,0" /></g><g
           transform="translate(788.0859,370.9902)"
           id="g478"><path
             id="path480"
             style="fill:#ffffff;fill-opacity:1;fill-rule:nonzero;stroke:none"
             d="m 0,0 c -0.24,-0.414 -0.771,-0.558 -1.19,-0.32 -0.414,0.247 -0.556,0.778 -0.315,1.192 0.24,0.416 0.771,0.56 1.191,0.317 C 0.104,0.947 0.244,0.417 0,0" /></g><g
           transform="translate(739.9111,304.8223)"
           id="g482"><path
             id="path484"
             style="fill:#ffffff;fill-opacity:1;fill-rule:nonzero;stroke:none"
             d="m 0,0 c -0.242,-0.417 -0.772,-0.558 -1.188,-0.315 -0.416,0.242 -0.559,0.773 -0.318,1.186 0.242,0.417 0.775,0.56 1.192,0.316 C 0.101,0.949 0.241,0.416 0,0" /></g><g
           transform="translate(791.2568,368.3145)"
           id="g486"><path
             id="path488"
             style="fill:#ffffff;fill-opacity:1;fill-rule:nonzero;stroke:none"
             d="M 0,0 C -0.279,-0.394 -0.823,-0.477 -1.214,-0.192 -1.604,0.088 -1.689,0.63 -1.406,1.025 -1.125,1.41 -0.579,1.494 -0.19,1.21 0.2,0.935 0.285,0.388 0,0" /></g><g
           transform="translate(736.6445,307.3516)"
           id="g490"><path
             id="path492"
             style="fill:#ffffff;fill-opacity:1;fill-rule:nonzero;stroke:none"
             d="m 0,0 c -0.284,-0.391 -0.827,-0.479 -1.216,-0.192 -0.39,0.281 -0.478,0.823 -0.196,1.215 0.282,0.388 0.828,0.471 1.217,0.193 C 0.195,0.935 0.279,0.389 0,0" /></g><g
           transform="translate(794.1455,365.3262)"
           id="g494"><path
             id="path496"
             style="fill:#ffffff;fill-opacity:1;fill-rule:nonzero;stroke:none"
             d="M 0,0 C -0.319,-0.357 -0.87,-0.388 -1.229,-0.067 -1.587,0.249 -1.621,0.805 -1.302,1.161 -0.979,1.52 -0.429,1.551 -0.07,1.229 0.289,0.911 0.32,0.361 0,0" /></g><g
           transform="translate(733.6504,310.2021)"
           id="g498"><path
             id="path500"
             style="fill:#ffffff;fill-opacity:1;fill-rule:nonzero;stroke:none"
             d="m 0,0 c -0.322,-0.362 -0.873,-0.394 -1.232,-0.072 -0.357,0.319 -0.39,0.871 -0.07,1.227 0.32,0.36 0.872,0.391 1.23,0.074 C 0.286,0.905 0.317,0.356 0,0" /></g><g
           transform="translate(796.7148,362.0693)"
           id="g502"><path
             id="path504"
             style="fill:#ffffff;fill-opacity:1;fill-rule:nonzero;stroke:none"
             d="M 0,0 C -0.352,-0.327 -0.903,-0.302 -1.231,0.052 -1.555,0.409 -1.527,0.964 -1.176,1.286 -0.82,1.611 -0.271,1.585 0.055,1.229 0.383,0.872 0.352,0.325 0,0" /></g><g
           transform="translate(730.958,313.334)"
           id="g506"><path
             id="path508"
             style="fill:#ffffff;fill-opacity:1;fill-rule:nonzero;stroke:none"
             d="M 0,0 C -0.357,-0.326 -0.906,-0.3 -1.232,0.055 -1.556,0.411 -1.533,0.957 -1.179,1.288 -0.823,1.611 -0.269,1.585 0.054,1.23 0.377,0.877 0.353,0.325 0,0" /></g><g
           transform="translate(800.9561,354.5)"
           id="g510"><path
             id="path512"
             style="fill:#ffffff;fill-opacity:1;fill-rule:nonzero;stroke:none"
             d="m 0,0 c -0.417,-0.239 -0.949,-0.104 -1.193,0.312 -0.242,0.415 -0.105,0.951 0.312,1.193 0.416,0.239 0.948,0.1 1.193,-0.313 C 0.556,0.775 0.416,0.245 0,0" /></g><g
           transform="translate(726.418,320.6846)"
           id="g514"><path
             id="path516"
             style="fill:#ffffff;fill-opacity:1;fill-rule:nonzero;stroke:none"
             d="M 0,0 C -0.414,-0.245 -0.948,-0.104 -1.19,0.312 -1.432,0.729 -1.295,1.26 -0.882,1.502 -0.465,1.747 0.07,1.606 0.312,1.189 0.555,0.775 0.414,0.242 0,0" /></g><g
           transform="translate(802.3945,350.6084)"
           id="g518"><path
             id="path520"
             style="fill:#ffffff;fill-opacity:1;fill-rule:nonzero;stroke:none"
             d="M 0,0 C -0.437,-0.202 -0.956,-0.01 -1.153,0.43 -1.354,0.87 -1.16,1.382 -0.723,1.583 -0.286,1.781 0.231,1.591 0.43,1.15 0.63,0.719 0.435,0.198 0,0" /></g><g
           transform="translate(724.8203,324.4951)"
           id="g522"><path
             id="path524"
             style="fill:#ffffff;fill-opacity:1;fill-rule:nonzero;stroke:none"
             d="m 0,0 c -0.437,-0.2 -0.951,-0.008 -1.152,0.432 -0.2,0.438 -0.006,0.956 0.429,1.154 0.44,0.2 0.956,0.005 1.156,-0.433 C 0.635,0.713 0.439,0.2 0,0" /></g><g
           transform="translate(803.4336,346.584)"
           id="g526"><path
             id="path528"
             style="fill:#ffffff;fill-opacity:1;fill-rule:nonzero;stroke:none"
             d="M 0,0 C -0.456,-0.153 -0.95,0.092 -1.104,0.547 -1.258,1.003 -1.015,1.499 -0.558,1.65 -0.104,1.808 0.39,1.567 0.547,1.109 0.703,0.653 0.455,0.157 0,0" /></g><g
           transform="translate(723.6182,328.4521)"
           id="g530"><path
             id="path532"
             style="fill:#ffffff;fill-opacity:1;fill-rule:nonzero;stroke:none"
             d="m 0,0 c -0.455,-0.156 -0.947,0.089 -1.104,0.544 -0.151,0.455 0.09,0.944 0.546,1.102 C -0.102,1.801 0.396,1.556 0.548,1.101 0.701,0.647 0.457,0.147 0,0" /></g><g
           transform="translate(804.0605,342.4854)"
           id="g534"><path
             id="path536"
             style="fill:#ffffff;fill-opacity:1;fill-rule:nonzero;stroke:none"
             d="M 0,0 C -0.466,-0.107 -0.935,0.182 -1.041,0.649 -1.147,1.118 -0.855,1.59 -0.389,1.696 0.08,1.803 0.549,1.512 0.659,1.041 0.763,0.575 0.469,0.106 0,0" /></g><g
           transform="translate(722.8242,332.5049)"
           id="g538"><path
             id="path540"
             style="fill:#ffffff;fill-opacity:1;fill-rule:nonzero;stroke:none"
             d="m 0,0 c -0.471,-0.107 -0.937,0.185 -1.045,0.653 -0.106,0.469 0.186,0.94 0.653,1.044 C 0.078,1.804 0.549,1.512 0.655,1.043 0.759,0.572 0.468,0.109 0,0" /></g><g
           transform="translate(803.959,333.3213)"
           id="g542"><path
             id="path544"
             style="fill:#ffffff;fill-opacity:1;fill-rule:nonzero;stroke:none"
             d="m 0,0 c -0.479,0 -0.87,0.389 -0.87,0.873 0,0.481 0.391,0.869 0.87,0.869 0.479,0 0.869,-0.385 0.872,-0.866 C 0.875,0.392 0.484,0.006 0,0" /></g><g
           transform="translate(722.5371,341.6201)"
           id="g546"><path
             id="path548"
             style="fill:#ffffff;fill-opacity:1;fill-rule:nonzero;stroke:none"
             d="m 0,0 c -0.481,0 -0.873,0.389 -0.875,0.87 0.002,0.482 0.39,0.874 0.869,0.874 0.484,0 0.874,-0.39 0.871,-0.869 C 0.868,0.396 0.479,0.006 0,0" /></g><g
           transform="translate(803.2461,329.2354)"
           id="g550"><path
             id="path552"
             style="fill:#ffffff;fill-opacity:1;fill-rule:nonzero;stroke:none"
             d="m 0,0 c -0.479,0.05 -0.827,0.472 -0.781,0.95 0.05,0.482 0.473,0.833 0.956,0.783 C 0.653,1.687 0.999,1.254 0.95,0.783 0.906,0.299 0.479,-0.047 0,0" /></g><g
           transform="translate(723.0762,345.7197)"
           id="g554"><path
             id="path556"
             style="fill:#ffffff;fill-opacity:1;fill-rule:nonzero;stroke:none"
             d="m 0,0 c -0.483,0.047 -0.826,0.474 -0.781,0.956 0.05,0.474 0.473,0.83 0.953,0.775 C 0.65,1.682 1.001,1.258 0.952,0.779 0.904,0.3 0.477,-0.049 0,0" /></g><g
           transform="translate(802.1221,325.2373)"
           id="g558"><path
             id="path560"
             style="fill:#ffffff;fill-opacity:1;fill-rule:nonzero;stroke:none"
             d="M 0,0 C -0.472,0.097 -0.779,0.554 -0.684,1.028 -0.586,1.499 -0.126,1.804 0.349,1.71 0.816,1.613 1.124,1.153 1.025,0.68 0.932,0.211 0.473,-0.099 0,0" /></g><g
           transform="translate(724.0254,349.7363)"
           id="g562"><path
             id="path564"
             style="fill:#ffffff;fill-opacity:1;fill-rule:nonzero;stroke:none"
             d="M 0,0 C -0.471,0.102 -0.776,0.562 -0.68,1.034 -0.581,1.502 -0.124,1.807 0.347,1.713 0.82,1.619 1.127,1.158 1.028,0.685 0.933,0.214 0.471,-0.091 0,0" /></g><g
           transform="translate(800.5986,321.377)"
           id="g566"><path
             id="path568"
             style="fill:#ffffff;fill-opacity:1;fill-rule:nonzero;stroke:none"
             d="M 0,0 C -0.459,0.143 -0.716,0.63 -0.573,1.091 -0.429,1.549 0.06,1.804 0.519,1.663 0.976,1.521 1.234,1.033 1.092,0.572 0.944,0.111 0.458,-0.146 0,0" /></g><g
           transform="translate(725.3789,353.6406)"
           id="g570"><path
             id="path572"
             style="fill:#ffffff;fill-opacity:1;fill-rule:nonzero;stroke:none"
             d="m 0,0 c -0.457,0.148 -0.714,0.636 -0.571,1.097 0.142,0.46 0.63,0.715 1.092,0.569 C 0.978,1.525 1.236,1.036 1.091,0.575 0.945,0.12 0.458,-0.138 0,0" /></g><g
           transform="translate(796.0977,313.7715)"
           id="g574"><path
             id="path576"
             style="fill:#ffffff;fill-opacity:1;fill-rule:nonzero;stroke:none"
             d="M 0,0 C -0.419,0.239 -0.564,0.767 -0.327,1.187 -0.089,1.605 0.443,1.757 0.86,1.512 1.276,1.274 1.428,0.744 1.187,0.322 0.95,-0.092 0.417,-0.234 0,0" /></g><g
           transform="translate(729.5352,361.4033)"
           id="g578"><path
             id="path580"
             style="fill:#ffffff;fill-opacity:1;fill-rule:nonzero;stroke:none"
             d="M 0,0 C -0.417,0.237 -0.562,0.768 -0.324,1.189 -0.084,1.604 0.445,1.752 0.863,1.513 1.281,1.278 1.43,0.741 1.188,0.325 0.949,-0.097 0.419,-0.239 0,0" /></g><g
           transform="translate(793.4482,310.5742)"
           id="g582"><path
             id="path584"
             style="fill:#ffffff;fill-opacity:1;fill-rule:nonzero;stroke:none"
             d="M 0,0 C -0.396,0.281 -0.484,0.825 -0.208,1.213 0.073,1.608 0.617,1.7 1.011,1.424 1.4,1.143 1.489,0.599 1.211,0.206 0.932,-0.187 0.391,-0.273 0,0" /></g><g
           transform="translate(732.0391,364.6963)"
           id="g586"><path
             id="path588"
             style="fill:#ffffff;fill-opacity:1;fill-rule:nonzero;stroke:none"
             d="M 0,0 C -0.394,0.272 -0.484,0.817 -0.203,1.21 0.076,1.601 0.62,1.691 1.01,1.416 1.403,1.135 1.495,0.589 1.216,0.197 0.935,-0.19 0.395,-0.281 0,0" /></g><g
           transform="translate(790.4834,307.6641)"
           id="g590"><path
             id="path592"
             style="fill:#ffffff;fill-opacity:1;fill-rule:nonzero;stroke:none"
             d="M 0,0 C -0.361,0.318 -0.398,0.869 -0.081,1.231 0.237,1.593 0.789,1.627 1.153,1.312 1.512,0.992 1.549,0.443 1.231,0.084 0.913,-0.275 0.361,-0.317 0,0" /></g><g
           transform="translate(734.8604,367.708)"
           id="g594"><path
             id="path596"
             style="fill:#ffffff;fill-opacity:1;fill-rule:nonzero;stroke:none"
             d="M 0,0 C -0.36,0.319 -0.395,0.872 -0.078,1.231 0.238,1.591 0.789,1.632 1.148,1.312 1.513,1 1.549,0.444 1.23,0.083 0.912,-0.276 0.359,-0.312 0,0" /></g><g
           transform="translate(787.2441,305.0693)"
           id="g598"><path
             id="path600"
             style="fill:#ffffff;fill-opacity:1;fill-rule:nonzero;stroke:none"
             d="M 0,0 C -0.324,0.354 -0.309,0.905 0.046,1.233 0.397,1.559 0.95,1.535 1.276,1.187 1.604,0.835 1.586,0.286 1.233,-0.047 0.879,-0.372 0.329,-0.347 0,0" /></g><g
           transform="translate(737.9727,370.4307)"
           id="g602"><path
             id="path604"
             style="fill:#ffffff;fill-opacity:1;fill-rule:nonzero;stroke:none"
             d="M 0,0 C -0.323,0.352 -0.306,0.9 0.047,1.231 0.4,1.557 0.95,1.538 1.279,1.185 1.604,0.833 1.586,0.276 1.232,-0.047 0.879,-0.375 0.331,-0.354 0,0" /></g><g
           transform="translate(779.5713,300.709)"
           id="g606"><path
             id="path608"
             style="fill:#ffffff;fill-opacity:1;fill-rule:nonzero;stroke:none"
             d="M 0,0 C -0.241,0.414 -0.104,0.947 0.31,1.191 0.728,1.437 1.258,1.301 1.502,0.885 1.744,0.471 1.606,-0.062 1.194,-0.305 0.778,-0.558 0.247,-0.414 0,0" /></g><g
           transform="translate(745.4229,375.0928)"
           id="g610"><path
             id="path612"
             style="fill:#ffffff;fill-opacity:1;fill-rule:nonzero;stroke:none"
             d="M 0,0 C -0.244,0.411 -0.104,0.947 0.31,1.194 0.722,1.437 1.258,1.304 1.501,0.888 1.742,0.474 1.608,-0.065 1.193,-0.305 0.779,-0.553 0.246,-0.414 0,0" /></g><g
           transform="translate(775.6846,299.252)"
           id="g614"><path
             id="path616"
             style="fill:#ffffff;fill-opacity:1;fill-rule:nonzero;stroke:none"
             d="M 0,0 C -0.2,0.434 -0.01,0.952 0.428,1.155 0.864,1.353 1.383,1.166 1.583,0.733 1.786,0.291 1.594,-0.222 1.156,-0.425 0.722,-0.631 0.204,-0.436 0,0" /></g><g
           transform="translate(749.2275,376.7061)"
           id="g618"><path
             id="path620"
             style="fill:#ffffff;fill-opacity:1;fill-rule:nonzero;stroke:none"
             d="M 0,0 C -0.201,0.442 -0.011,0.953 0.428,1.158 0.864,1.356 1.383,1.166 1.584,0.727 1.785,0.294 1.593,-0.226 1.158,-0.429 0.721,-0.627 0.205,-0.437 0,0" /></g><g
           transform="translate(771.6709,298.1943)"
           id="g622"><path
             id="path624"
             style="fill:#ffffff;fill-opacity:1;fill-rule:nonzero;stroke:none"
             d="M 0,0 C -0.155,0.453 0.083,0.95 0.542,1.106 0.995,1.266 1.489,1.023 1.65,0.562 1.802,0.112 1.563,-0.383 1.107,-0.542 0.651,-0.694 0.154,-0.458 0,0" /></g><g
           transform="translate(753.1748,377.9277)"
           id="g626"><path
             id="path628"
             style="fill:#ffffff;fill-opacity:1;fill-rule:nonzero;stroke:none"
             d="M 0,0 C -0.153,0.45 0.089,0.947 0.541,1.103 1,1.26 1.494,1.022 1.649,0.564 1.806,0.111 1.564,-0.386 1.108,-0.542 0.652,-0.7 0.157,-0.453 0,0" /></g><g
           transform="translate(767.5713,297.5459)"
           id="g630"><path
             id="path632"
             style="fill:#ffffff;fill-opacity:1;fill-rule:nonzero;stroke:none"
             d="M 0,0 C -0.108,0.469 0.181,0.937 0.648,1.049 1.116,1.161 1.585,0.867 1.695,0.398 1.805,-0.069 1.515,-0.535 1.045,-0.647 0.576,-0.757 0.113,-0.468 0,0" /></g><g
           transform="translate(757.2295,378.7451)"
           id="g634"><path
             id="path636"
             style="fill:#ffffff;fill-opacity:1;fill-rule:nonzero;stroke:none"
             d="M 0,0 C -0.106,0.466 0.18,0.935 0.648,1.043 1.12,1.158 1.586,0.86 1.697,0.393 1.805,-0.076 1.513,-0.548 1.047,-0.657 0.578,-0.764 0.11,-0.472 0,0" /></g><g
           transform="translate(763.1201,338.3555)"
           id="g638"><path
             id="path640"
             style="fill:#ffffff;fill-opacity:1;fill-rule:nonzero;stroke:none"
             d="m 0,0 c -0.001,0 -1.306,0.418 -3.127,1.282 -0.912,0.429 -1.959,0.959 -3.045,1.589 -1.074,0.649 -2.183,1.403 -3.315,2.119 -2.261,1.44 -4.534,2.858 -6.211,3.968 -1.684,1.098 -2.807,1.829 -2.807,1.829 l 0.067,0.115 c 0,0 1.19,-0.617 2.975,-1.542 1.792,-0.912 4.147,-2.19 6.512,-3.448 C -7.77,5.279 -6.566,4.686 -5.473,4.07 -4.39,3.437 -3.412,2.787 -2.59,2.204 -0.94,1.045 0.067,0.115 0.066,0.115 Z" /></g><g
           transform="translate(763.1143,338.4668)"
           id="g642"><path
             id="path644"
             style="fill:#ffffff;fill-opacity:1;fill-rule:nonzero;stroke:none"
             d="m 0,0 c 0,0 0.428,0.41 1.204,1.094 0.382,0.348 0.858,0.759 1.409,1.219 0.552,0.459 1.162,0.996 1.851,1.548 0.683,0.561 1.432,1.158 2.23,1.78 0.791,0.63 1.657,1.255 2.534,1.923 1.791,1.29 3.734,2.621 5.666,3.967 3.854,2.704 7.695,5.428 10.607,7.428 2.903,2.011 4.84,3.352 4.84,3.352 l 0.078,-0.108 c 0,0 -1.857,-1.448 -4.642,-3.62 C 23.001,16.399 19.256,13.545 15.525,10.672 13.664,9.229 11.815,7.771 10.05,6.446 9.15,5.808 8.296,5.169 7.458,4.602 6.627,4.024 5.834,3.488 5.096,3.003 4.362,2.511 3.669,2.088 3.065,1.698 2.461,1.309 1.929,0.978 1.481,0.716 0.599,0.18 0.078,-0.107 0.078,-0.107 Z" /></g><g
           transform="translate(763.2529,344.2002)"
           id="g646"><path
             id="path648"
             style="fill:#ff0000;fill-opacity:1;fill-rule:nonzero;stroke:none"
             d="m 0,0 c 0,0 0.145,-2.297 0.231,-5.742 0.036,-1.723 0.082,-3.733 0.082,-5.886 -0.025,-2.153 -0.052,-4.45 -0.08,-6.747 C 0.117,-27.562 0,-36.75 0,-36.75 h -0.066 c 0,0 -0.118,9.188 -0.234,18.375 -0.027,2.297 -0.054,4.594 -0.08,6.747 0,2.153 0.047,4.163 0.082,5.886 C -0.211,-2.297 -0.066,0 -0.066,0 Z" /></g><g
           transform="translate(764.7783,338.9316)"
           id="g650"><path
             id="path652"
             style="fill:#ffffff;fill-opacity:1;fill-rule:nonzero;stroke:none"
             d="m 0,0 c 0,-0.898 -0.724,-1.624 -1.625,-1.624 -0.898,0 -1.626,0.726 -1.626,1.624 0,0.9 0.728,1.627 1.626,1.627 C -0.724,1.627 0,0.9 0,0" /></g><g
           transform="translate(732.5459,443.2881)"
           id="g654"><path
             id="path656"
             style="fill:none;stroke:#ff886f;stroke-width:2.66499996;stroke-linecap:butt;stroke-linejoin:miter;stroke-miterlimit:10;stroke-dasharray:none;stroke-opacity:1"
             d="M 0,0 -0.416,-17.916" /></g><g
           transform="translate(772.4268,488.6797)"
           id="g658"><path
             id="path660"
             style="fill:none;stroke:#ff886f;stroke-width:2.66499996;stroke-linecap:butt;stroke-linejoin:miter;stroke-miterlimit:10;stroke-dasharray:none;stroke-opacity:1"
             d="M 0,0 0.067,-89.588" /></g><g
           transform="translate(801.3877,434.332)"
           id="g662"><path
             id="path664"
             style="fill:none;stroke:#0ac0d7;stroke-width:2.66499996;stroke-linecap:butt;stroke-linejoin:miter;stroke-miterlimit:10;stroke-dasharray:none;stroke-opacity:1"
             d="M 0,0 V -19.71" /></g><g
           transform="translate(751.8047,425.3721)"
           id="g666"><path
             id="path668"
             style="fill:none;stroke:#0ac0d7;stroke-width:2.66499996;stroke-linecap:butt;stroke-linejoin:miter;stroke-miterlimit:10;stroke-dasharray:none;stroke-opacity:1"
             d="M 0,0 V -32.251" /></g><g
           transform="translate(791.9336,424.4766)"
           id="g670"><path
             id="path672"
             style="fill:none;stroke:#b6bfc0;stroke-width:2.66499996;stroke-linecap:butt;stroke-linejoin:miter;stroke-miterlimit:10;stroke-dasharray:none;stroke-opacity:1"
             d="M 0,0 V -37.61" /></g><g
           transform="translate(805.3965,455.8535)"
           id="g674"><path
             id="path676"
             style="fill:#b6bfc0;fill-opacity:1;fill-rule:evenodd;stroke:none"
             d="m 0,0 1.135,-1.133 c 0.624,-0.627 0.624,-1.642 0,-2.266 -0.63,-0.628 -1.644,-0.628 -2.271,0 l -1.132,1.131 c -0.627,0.625 -0.627,1.64 0,2.268 0.625,0.627 1.641,0.627 2.268,0 m -6.235,-1.643 c 0.885,0 1.601,-0.718 1.601,-1.603 V -4.85 c 0,-0.884 -0.716,-1.603 -1.601,-1.603 -0.888,0 -1.604,0.719 -1.604,1.603 v 1.604 c 0,0.885 0.716,1.603 1.604,1.603 M -12.47,0 c 0.626,0.627 1.641,0.627 2.265,0 0.629,-0.628 0.629,-1.643 0,-2.268 l -1.129,-1.131 c -0.627,-0.628 -1.643,-0.628 -2.27,0 -0.625,0.624 -0.625,1.639 0,2.266 z m 0.623,3.967 c 0,-0.885 -0.716,-1.601 -1.6,-1.601 h -1.605 c -0.884,0 -1.602,0.716 -1.602,1.601 0,0.885 0.718,1.603 1.602,1.603 h 1.605 c 0.884,0 1.6,-0.718 1.6,-1.603 m -0.623,3.968 -1.134,1.131 c -0.625,0.627 -0.625,1.645 0,2.27 0.627,0.625 1.643,0.625 2.27,0 l 1.129,-1.135 c 0.629,-0.625 0.629,-1.64 0,-2.266 -0.624,-0.625 -1.639,-0.625 -2.265,0 m 6.235,1.641 c -0.888,0 -1.604,0.719 -1.604,1.604 v 1.603 c 0,0.888 0.716,1.604 1.604,1.604 0.885,0 1.601,-0.716 1.601,-1.604 V 11.18 c 0,-0.885 -0.716,-1.604 -1.601,-1.604 m 0,-4.006 c -0.888,0 -1.604,-0.718 -1.604,-1.603 0,-0.885 0.716,-1.601 1.604,-1.601 0.885,0 1.601,0.716 1.601,1.601 0,0.885 -0.716,1.603 -1.601,1.603 m 0,-5.609 c -2.215,0 -4.005,1.793 -4.005,4.006 0,2.215 1.79,4.009 4.005,4.009 2.213,0 4.006,-1.794 4.006,-4.009 0,-2.213 -1.793,-4.006 -4.006,-4.006 M 0,7.935 c -0.627,-0.625 -1.643,-0.625 -2.268,0 -0.627,0.626 -0.627,1.641 0,2.266 l 1.132,1.135 c 0.627,0.625 1.641,0.625 2.271,0 0.624,-0.625 0.624,-1.643 0,-2.27 z M 2.582,2.366 H 0.978 c -0.885,0 -1.604,0.716 -1.604,1.601 0,0.885 0.719,1.603 1.604,1.603 h 1.604 c 0.885,0 1.604,-0.718 1.604,-1.603 0,-0.885 -0.719,-1.601 -1.604,-1.601" /></g><g
           transform="translate(842.5674,292.8008)"
           id="g678"><path
             id="path680"
             style="fill:#b6bfc0;fill-opacity:1;fill-rule:evenodd;stroke:none"
             d="m 0,0 1.135,-1.132 c 0.624,-0.628 0.624,-1.642 0,-2.267 -0.625,-0.627 -1.641,-0.627 -2.268,0 l -1.132,1.132 c -0.625,0.624 -0.625,1.64 0,2.267 0.624,0.628 1.639,0.628 2.265,0 m -6.231,-1.643 c 0.884,0 1.603,-0.718 1.603,-1.602 V -4.85 c 0,-0.884 -0.719,-1.602 -1.603,-1.602 -0.886,0 -1.605,0.718 -1.605,1.602 v 1.605 c 0,0.884 0.719,1.602 1.605,1.602 M -12.466,0 c 0.626,0.628 1.643,0.628 2.267,0 0.624,-0.627 0.624,-1.643 0,-2.267 l -1.135,-1.132 c -0.624,-0.627 -1.64,-0.627 -2.268,0 -0.624,0.625 -0.624,1.639 0,2.267 z m 0.622,3.968 c 0,-0.886 -0.716,-1.602 -1.603,-1.602 h -1.605 c -0.885,0 -1.6,0.716 -1.6,1.602 0,0.884 0.715,1.602 1.6,1.602 h 1.605 c 0.887,0 1.603,-0.718 1.603,-1.602 m -0.622,3.966 -1.136,1.132 c -0.624,0.627 -0.624,1.646 0,2.27 0.628,0.625 1.644,0.625 2.268,0 l 1.135,-1.135 c 0.624,-0.625 0.624,-1.639 0,-2.267 -0.624,-0.624 -1.641,-0.624 -2.267,0 m 6.235,1.642 c -0.886,0 -1.605,0.719 -1.605,1.605 v 1.602 c 0,0.889 0.719,1.604 1.605,1.604 0.884,0 1.603,-0.715 1.603,-1.604 v -1.602 c 0,-0.886 -0.719,-1.605 -1.603,-1.605 m 0,-4.006 c -0.886,0 -1.605,-0.718 -1.605,-1.602 0,-0.886 0.719,-1.602 1.605,-1.602 0.884,0 1.603,0.716 1.603,1.602 0,0.884 -0.719,1.602 -1.603,1.602 m 0,-5.608 c -2.213,0 -4.01,1.793 -4.01,4.006 0,2.215 1.797,4.009 4.01,4.009 2.211,0 4.004,-1.794 4.004,-4.009 0,-2.213 -1.793,-4.006 -4.004,-4.006 M 0,7.934 c -0.626,-0.624 -1.641,-0.624 -2.265,0 -0.625,0.628 -0.625,1.642 0,2.267 l 1.132,1.135 c 0.627,0.625 1.643,0.625 2.268,0 0.624,-0.624 0.624,-1.643 0,-2.27 z M 2.585,2.366 H 0.979 c -0.883,0 -1.599,0.716 -1.599,1.602 0,0.884 0.716,1.602 1.599,1.602 H 2.585 C 3.47,5.57 4.186,4.852 4.186,3.968 4.186,3.082 3.47,2.366 2.585,2.366" /></g><g
           transform="translate(718.8369,380.499)"
           id="g682"><path
             id="path684"
             style="fill:#b6bfc0;fill-opacity:1;fill-rule:evenodd;stroke:none"
             d="m 0,0 1.135,-1.133 c 0.625,-0.627 0.625,-1.642 0,-2.266 -0.627,-0.628 -1.641,-0.628 -2.269,0 l -1.132,1.131 c -0.626,0.625 -0.626,1.64 0,2.268 0.624,0.628 1.64,0.628 2.266,0 m -6.233,-1.643 c 0.885,0 1.602,-0.718 1.602,-1.603 V -4.85 c 0,-0.884 -0.717,-1.603 -1.602,-1.603 -0.886,0 -1.603,0.719 -1.603,1.603 v 1.604 c 0,0.885 0.717,1.603 1.603,1.603 M -12.467,0 c 0.626,0.628 1.642,0.628 2.266,0 0.626,-0.628 0.626,-1.643 0,-2.268 l -1.132,-1.131 c -0.626,-0.628 -1.642,-0.628 -2.269,0 -0.625,0.624 -0.625,1.639 0,2.266 z m 0.622,3.967 c 0,-0.885 -0.716,-1.601 -1.602,-1.601 h -1.604 c -0.885,0 -1.602,0.716 -1.602,1.601 0,0.886 0.717,1.603 1.602,1.603 h 1.604 c 0.886,0 1.602,-0.717 1.602,-1.603 m -0.622,3.968 -1.135,1.131 c -0.625,0.627 -0.625,1.645 0,2.27 0.627,0.625 1.643,0.625 2.269,0 l 1.132,-1.135 c 0.626,-0.625 0.626,-1.639 0,-2.266 -0.624,-0.625 -1.64,-0.625 -2.266,0 m 6.234,1.641 c -0.886,0 -1.603,0.719 -1.603,1.604 v 1.603 c 0,0.888 0.717,1.604 1.603,1.604 0.885,0 1.602,-0.716 1.602,-1.604 V 11.18 c 0,-0.885 -0.717,-1.604 -1.602,-1.604 m 0,-4.006 c -0.886,0 -1.603,-0.717 -1.603,-1.603 0,-0.885 0.717,-1.601 1.603,-1.601 0.885,0 1.602,0.716 1.602,1.601 0,0.886 -0.717,1.603 -1.602,1.603 m 0,-5.609 c -2.214,0 -4.007,1.793 -4.007,4.006 0,2.216 1.793,4.009 4.007,4.009 2.212,0 4.005,-1.793 4.005,-4.009 0,-2.213 -1.793,-4.006 -4.005,-4.006 M 0,7.935 c -0.626,-0.625 -1.642,-0.625 -2.266,0 -0.626,0.627 -0.626,1.641 0,2.266 l 1.132,1.135 c 0.628,0.625 1.642,0.625 2.269,0 0.625,-0.625 0.625,-1.643 0,-2.27 z M 2.583,2.366 H 0.979 c -0.884,0 -1.601,0.716 -1.601,1.601 0,0.886 0.717,1.603 1.601,1.603 h 1.604 c 0.886,0 1.603,-0.717 1.603,-1.603 0,-0.885 -0.717,-1.601 -1.603,-1.601" /></g></g></g><text
       id="text688"
       style="font-variant:normal;font-weight:normal;font-stretch:normal;font-size:33.69300079px;font-family:'Myriad Pro';-inkscape-font-specification:MyriadPro-Regular;writing-mode:lr-tb;fill:#98999c;fill-opacity:1;fill-rule:nonzero;stroke:none"
       transform="matrix(1,0,0,-1,681.9199,42.9834)"><tspan
         id="tspan686"
         y="0"
         x="0 16.610649 35.445038 54.245731 70.822685 76.58419 93.329613 101.38224 128.47141">SAVE TIME</tspan></text>
</g></svg>